<svg width="13" height="15" viewBox="0 0 13 15" fill="none" xmlns="http://www.w3.org/2000/svg">
<path fill-rule="evenodd" clip-rule="evenodd" d="M10.1435 0C8.76945 0 7.6555 1.11928 7.6555 2.5C7.6555 2.6507 7.66875 2.79828 7.69424 2.94163L4.07266 5.48891C4.05425 5.50185 4.03684 5.51568 4.02042 5.5303C3.59803 5.19805 3.06605 5 2.48804 5C1.11393 5 0 6.11931 0 7.5C0 8.88069 1.11393 10 2.48804 10C3.06605 10 3.59803 9.80192 4.02042 9.46969C4.03684 9.48431 4.05425 9.49815 4.07266 9.51108L7.69424 12.0584C7.66875 12.2017 7.6555 12.3493 7.6555 12.5C7.6555 13.8807 8.76945 15 10.1435 15C11.5176 15 12.6316 13.8807 12.6316 12.5C12.6316 11.1193 11.5176 10 10.1435 10C9.33757 10 8.62109 10.3851 8.16643 10.9821L4.73727 8.57008C4.8904 8.24569 4.97608 7.88292 4.97608 7.5C4.97608 7.11708 4.8904 6.75431 4.73727 6.42992L8.16643 4.01792C8.62109 4.61494 9.33757 5 10.1435 5C11.5176 5 12.6316 3.88072 12.6316 2.5C12.6316 1.11928 11.5176 0 10.1435 0ZM8.80383 2.5C8.80383 1.75654 9.40364 1.15385 10.1435 1.15385C10.8834 1.15385 11.4833 1.75654 11.4833 2.5C11.4833 3.24346 10.8834 3.84615 10.1435 3.84615C9.40364 3.84615 8.80383 3.24346 8.80383 2.5ZM2.48804 6.15385C1.74813 6.15385 1.14833 6.75654 1.14833 7.5C1.14833 8.24346 1.74813 8.84615 2.48804 8.84615C3.22794 8.84615 3.82775 8.24346 3.82775 7.5C3.82775 6.75654 3.22794 6.15385 2.48804 6.15385ZM10.1435 11.1538C9.40364 11.1538 8.80383 11.7565 8.80383 12.5C8.80383 13.2435 9.40364 13.8462 10.1435 13.8462C10.8834 13.8462 11.4833 13.2435 11.4833 12.5C11.4833 11.7565 10.8834 11.1538 10.1435 11.1538Z" fill="#4E4E4E"/>
</svg>
