<svg width="20" height="25" viewBox="0 0 20 25" fill="none" xmlns="http://www.w3.org/2000/svg">
<path d="M2.28635 24.1409C2.0655 24.1403 1.84855 24.0827 1.65641 23.9738C1.45782 23.8622 1.29247 23.6998 1.17726 23.5033C1.06205 23.3067 1.00114 23.0831 1.00075 22.8553V3.99547C0.983366 3.22451 1.2705 2.47776 1.79992 1.91705C2.32934 1.35635 3.0584 1.02686 3.82908 1H16.1709C16.9416 1.02686 17.6707 1.35635 18.2001 1.91705C18.7295 2.47776 19.0166 3.22451 18.9993 3.99547V22.8553C18.9979 23.0797 18.9379 23.2998 18.8251 23.4937C18.7123 23.6877 18.5508 23.8488 18.3565 23.961C18.161 24.0738 17.9393 24.1332 17.7136 24.1332C17.488 24.1332 17.2663 24.0738 17.0708 23.961L9.78145 19.8342L2.92916 23.9481C2.73574 24.0682 2.51392 24.1347 2.28635 24.1409Z" stroke="#696F84" stroke-width="1.5"/>
</svg>
