<svg width="20" height="24" viewBox="0 0 20 24" fill="none" xmlns="http://www.w3.org/2000/svg">
<path fill-rule="evenodd" clip-rule="evenodd" d="M9.86102 3.42876H0.730146C0.342435 3.42876 0.027771 3.81275 0.027771 4.28589V23.1429C0.027771 23.616 0.342435 24 0.730146 24H16.1824C16.5701 24 16.8848 23.616 16.8848 23.1429V12.0001C16.8848 11.527 16.5701 11.143 16.1824 11.143C15.7947 11.143 15.48 11.527 15.48 12.0001V22.2857H1.43252V5.14303H9.86102C10.2487 5.14303 10.5634 4.75903 10.5634 4.28589C10.5634 3.81275 10.2487 3.42876 9.86102 3.42876ZM3.53964 19.7143H13.3729C13.7606 19.7143 14.0753 19.3303 14.0753 18.8572C14.0753 18.3841 13.7606 18.0001 13.3729 18.0001H3.53964C3.15193 18.0001 2.83727 18.3841 2.83727 18.8572C2.83727 19.3303 3.15193 19.7143 3.53964 19.7143ZM3.53964 16.2858H6.34914C6.73685 16.2858 7.05152 15.9018 7.05152 15.4286C7.05152 14.9555 6.73685 14.5715 6.34914 14.5715H3.53964C3.15193 14.5715 2.83727 14.9555 2.83727 15.4286C2.83727 15.9018 3.15193 16.2858 3.53964 16.2858ZM19.4885 4.89188C19.7631 4.5576 19.7631 4.01418 19.4885 3.6799L16.679 0.251355C16.405 -0.083785 15.9597 -0.083785 15.6858 0.251355L8.66206 8.82271C8.56373 8.94185 8.497 9.09442 8.46961 9.2607L7.76724 13.5464C7.72158 13.8275 7.79323 14.1181 7.95969 14.3204C8.12545 14.5235 8.36355 14.6109 8.59393 14.5552L12.1058 13.6981C12.2421 13.6647 12.3671 13.5832 12.4647 13.4632L19.4885 4.89188ZM3.53964 12.8572H6.34914C6.73685 12.8572 7.05152 12.4732 7.05152 12.0001C7.05152 11.527 6.73685 11.143 6.34914 11.143H3.53964C3.15193 11.143 2.83727 11.527 2.83727 12.0001C2.83727 12.4732 3.15193 12.8572 3.53964 12.8572ZM3.53964 9.4287H7.05152C7.43923 9.4287 7.75389 9.04471 7.75389 8.57157C7.75389 8.09843 7.43923 7.71443 7.05152 7.71443H3.53964C3.15193 7.71443 2.83727 8.09843 2.83727 8.57157C2.83727 9.04471 3.15193 9.4287 3.53964 9.4287Z" fill="#696F84"/>
</svg>
