<svg width="23" height="24" viewBox="0 0 23 24" fill="none" xmlns="http://www.w3.org/2000/svg">
<path d="M12.334 0.504189C11.6229 -0.168063 10.5107 -0.168063 9.79963 0.504189L0.86594 8.95062C0.31319 9.47323 0 10.2004 0 10.961V21.2333C0 22.7613 1.23869 24 2.7667 24H5.5334C7.06141 24 8.30009 22.7613 8.30009 21.2333V16.6221C8.30009 16.1129 8.713 15.7 9.22233 15.7H12.9113C13.4206 15.7 13.8335 16.1129 13.8335 16.6221V21.2333C13.8335 22.7613 15.0722 24 16.6002 24H19.3669C20.8948 24 22.1336 22.7613 22.1336 21.2333V10.961C22.1336 10.2004 21.8204 9.47323 21.2676 8.95062L12.334 0.504189Z" fill="black"/>
</svg>
